HIERARCHY
ROOT Beta:Hips
{
	OFFSET 0.00 0.00 0.00
	CHANNELS 6 Xposition Yposition Zposition Yrotation Xrotation Zrotation
	JOINT Beta:Spine
	{
		OFFSET	0.0000	9.2263	1.5771
		CHANNELS 3 Xrotation Yrotation Zrotation
		JOINT Beta:Spine1
		{
			OFFSET	0.0000	16.2540	-0.1656
			CHANNELS 3 Xrotation Yrotation Zrotation
			JOINT Beta:Spine2
			{
				OFFSET	0.0000	13.6396	-1.2923
				CHANNELS 3 Xrotation Yrotation Zrotation
				JOINT Beta:Neck
				{
					OFFSET	0.0000	13.8774	-4.3542
					CHANNELS 3 Xrotation Yrotation Zrotation
					JOINT Beta:Neck1
					{
						OFFSET	0.0000	4.3400	0.9269
						CHANNELS 3 Xrotation Yrotation Zrotation
						JOINT Beta:Head
						{
							OFFSET	0.0000	4.0266	0.8585
							CHANNELS 3 Xrotation Yrotation Zrotation
							End Site
							{
								OFFSET 0.0000 23.0297 0.1231
							}
						}
					}
				}
				JOINT Beta:LeftShoulder
				{
					OFFSET	6.1442	10.1870	-3.7932
					CHANNELS 3 Zrotation Xrotation Yrotation
					JOINT Beta:LeftArm
					{
						OFFSET	12.3191	-1.1130	-1.7935
						CHANNELS 3 Zrotation Xrotation Yrotation
						JOINT Beta:LeftForeArm
						{
							OFFSET	27.6870	0.0000	0.0000
							CHANNELS 3 Xrotation Zrotation Yrotation
							JOINT Beta:LeftHand
							{
								OFFSET	27.8738	0.0000	0.0000
								CHANNELS 3 Zrotation Yrotation Xrotation
								JOINT Beta:LeftHandThumb1
								{
									OFFSET	2.3785	-1.0029	2.6209
									CHANNELS 3 Zrotation Xrotation Yrotation
									JOINT Beta:LeftHandThumb2
									{
										OFFSET	3.3624	-1.0029	2.8398
										CHANNELS 3 Zrotation Xrotation Yrotation
										JOINT Beta:LeftHandThumb3
										{
											OFFSET	4.5018	-1.3445	2.1783
											CHANNELS 3 Zrotation Xrotation Yrotation
											End Site
											{
												OFFSET 2.6000 -1.0000 1.0000
											}
										}
									}
								}
								JOINT Beta:LeftHandMiddle1
								{
									OFFSET	10.4639	0.6148	0.4298
									CHANNELS 3 Zrotation Xrotation Yrotation
									JOINT Beta:LeftHandMiddle2
									{
										OFFSET	5.7921	0.0000	0.0000
										CHANNELS 3 Zrotation Xrotation Yrotation
										JOINT Beta:LeftHandMiddle3
										{
											OFFSET	3.7132	0.0000	0.0000
											CHANNELS 3 Zrotation Xrotation Yrotation
											End Site
											{
												OFFSET 2.3000 0.0000 0.0000
											}
										}
									}
								}
								JOINT Beta:LeftHandIndex1
								{
									OFFSET	10.3945	0.6148	2.7055
									CHANNELS 3 Zrotation Xrotation Yrotation
									JOINT Beta:LeftHandIndex2
									{
										OFFSET	5.5493	0.0000	0.0000
										CHANNELS 3 Zrotation Xrotation Yrotation
										JOINT Beta:LeftHandIndex3
										{
											OFFSET	3.3911	0.0000	0.0000
											CHANNELS 3 Zrotation Xrotation Yrotation
											End Site
											{
												OFFSET 2.5000 0.0000 0.0000
											}
										}
									}
								}
								JOINT Beta:LeftHandRing1
								{
									OFFSET	10.3252	0.3211	-1.8755
									CHANNELS 3 Zrotation Xrotation Yrotation
									JOINT Beta:LeftHandRing2
									{
										OFFSET	5.4452	0.0000	0.0000
										CHANNELS 3 Zrotation Xrotation Yrotation
										JOINT Beta:LeftHandRing3
										{
											OFFSET	3.7132	0.0000	0.0000
											CHANNELS 3 Zrotation Xrotation Yrotation
											End Site
											{
												OFFSET 2.0000 0.0000 0.0000
											}
										}
									}
								}
								JOINT Beta:LeftHandPinky1
								{
									OFFSET	10.0130	-0.0783	-3.9671
									CHANNELS 3 Zrotation Xrotation Yrotation
									JOINT Beta:LeftHandPinky2
									{
										OFFSET	3.6763	0.0000	0.0000
										CHANNELS 3 Zrotation Xrotation Yrotation
										JOINT Beta:LeftHandPinky3
										{
											OFFSET	2.8113	0.0000	0.0000
											CHANNELS 3 Zrotation Xrotation Yrotation
											End Site
											{
												OFFSET 2.9000 0.0000 0.0000
											}
										}
									}
								}
							}
						}
					}
				}
				JOINT Beta:RightShoulder
				{
					OFFSET	-6.1402	10.1870	-3.7932
					CHANNELS 3 Zrotation Xrotation Yrotation
					JOINT Beta:RightArm
					{
						OFFSET	-12.3231	-1.1130	-1.7935
						CHANNELS 3 Zrotation Xrotation Yrotation
						JOINT Beta:RightForeArm
						{
							OFFSET	-27.6870	0.0000	0.0000
							CHANNELS 3 Xrotation Zrotation Yrotation
							JOINT Beta:RightHand
							{
								OFFSET	-27.8738	0.0000	0.0000
								CHANNELS 3 Zrotation Yrotation Xrotation
								JOINT Beta:RightHandThumb1
								{
									OFFSET	-2.5178	-0.9367	2.5137
									CHANNELS 3 Zrotation Xrotation Yrotation
									JOINT Beta:RightHandThumb2
									{
										OFFSET	-3.2638	-1.0870	2.9669
										CHANNELS 3 Zrotation Xrotation Yrotation
										JOINT Beta:RightHandThumb3
										{
											OFFSET	-4.4165	-1.3703	2.1350
											CHANNELS 3 Zrotation Xrotation Yrotation
											End Site
											{
												OFFSET -2.6000 -1.0000 1.0000
											}
										}
									}
								}
								JOINT Beta:RightHandIndex1
								{
									OFFSET	-10.4665	0.4896	2.7120
									CHANNELS 3 Zrotation Xrotation Yrotation
									JOINT Beta:RightHandIndex2
									{
										OFFSET	-5.3768	0.0000	0.0000
										CHANNELS 3 Zrotation Xrotation Yrotation
										JOINT Beta:RightHandIndex3
										{
											OFFSET	-3.3855	0.0000	0.0000
											CHANNELS 3 Zrotation Xrotation Yrotation
											End Site
											{
												OFFSET -2.6000 0.0000 0.0000
											}
										}
									}
								}
								JOINT Beta:RightHandMiddle1
								{
									OFFSET	-10.7596	0.4896	0.4278
									CHANNELS 3 Zrotation Xrotation Yrotation
									JOINT Beta:RightHandMiddle2
									{
										OFFSET	-5.6168	0.0000	0.0000
										CHANNELS 3 Zrotation Xrotation Yrotation
										JOINT Beta:RightHandMiddle3
										{
											OFFSET	-3.7364	0.0000	0.0000
											CHANNELS 3 Zrotation Xrotation Yrotation
											End Site
											{
												OFFSET -2.3000 0.0000 0.0000
											}
										}
									}
								}
								JOINT Beta:RightHandRing1
								{
									OFFSET	-10.4702	0.3879	-1.9363
									CHANNELS 3 Zrotation Xrotation Yrotation
									JOINT Beta:RightHandRing2
									{
										OFFSET	-5.4013	0.0000	0.0000
										CHANNELS 3 Zrotation Xrotation Yrotation
										JOINT Beta:RightHandRing3
										{
											OFFSET	-3.3916	0.0000	0.0000
											CHANNELS 3 Zrotation Xrotation Yrotation
											End Site
											{
												OFFSET -2.2000 0.0000 0.0000
											}
										}
									}
								}
								JOINT Beta:RightHandPinky1
								{
									OFFSET	-9.9715	-0.1191	-3.9540
									CHANNELS 3 Zrotation Xrotation Yrotation
									JOINT Beta:RightHandPinky2
									{
										OFFSET	-3.6528	0.0000	0.0000
										CHANNELS 3 Zrotation Xrotation Yrotation
										JOINT Beta:RightHandPinky3
										{
											OFFSET	-2.7820	0.0000	0.0000
											CHANNELS 3 Zrotation Xrotation Yrotation
											End Site
											{
												OFFSET -2.9000 0.0000 0.0000
											}
										}
									}
								}
							}
						}
					}
				}
			}
		}
	}
	JOINT Beta:LeftUpLeg
	{
		OFFSET	9.6338	-3.2733	0.0000
		CHANNELS 3 Xrotation Yrotation Zrotation
		JOINT Beta:LeftLeg
		{
			OFFSET	0.0000	-41.7300	-1.7300
			CHANNELS 3 Xrotation Yrotation Zrotation
			JOINT Beta:LeftFoot
			{
				OFFSET	0.0126	-39.1900	-0.8477
				CHANNELS 3 Xrotation Yrotation Zrotation
				JOINT Beta:LeftToeBase
				{
					OFFSET	-0.1833	-12.1931	8.2823
					CHANNELS 3 Xrotation Yrotation Zrotation
					End Site
					{
						OFFSET 0.0000 0.0000 10.1681
					}
				}
			}
		}
	}
	JOINT Beta:RightUpLeg
	{
		OFFSET	-9.6338	-3.2733	0.0000
		CHANNELS 3 Xrotation Yrotation Zrotation
		JOINT Beta:RightLeg
		{
			OFFSET	0.0000	-41.7300	-1.7300
			CHANNELS 3 Xrotation Yrotation Zrotation
			JOINT Beta:RightFoot
			{
				OFFSET	0.0126	-39.1900	-0.8477
				CHANNELS 3 Xrotation Yrotation Zrotation
				JOINT Beta:RightToeBase
				{
					OFFSET	-0.1833	-12.1931	8.2823
					CHANNELS 3 Xrotation Yrotation Zrotation
					End Site
					{
						OFFSET 0.0032 0.0000 10.1681
					}
				}
			}
		}
	}
}
MOTION
Frames: 7
Frame Time: 0.0333333
-0.0000 95.7681 -0.0000 -5.2411 -3.7381 -3.0090 3.3047 1.5259 2.3198 1.1460 0.3292 1.5530 1.1237 0.3562 1.5509 5.6227 -0.0772 0.4639 -0.0000 0.0000 -0.0000 -7.5511 1.3747 -0.0844 -11.7821 4.6909 -16.8540 -69.8751 20.0977 -3.2886 0.0000 -0.0000 -1.4527 -8.5182 -3.9521 -26.8271 -1.2570 4.7829 8.5740 14.3749 8.6071 13.9418 -4.3962 -7.3974 1.1549 -12.5306 0.0000 -1.3305 -17.4908 0.0000 -0.0000 -18.5030 0.0000 -0.0000 -4.0768 0.4326 -4.0594 -17.4620 -0.0000 -0.0000 -8.0804 0.0000 -0.0000 -18.0295 -0.0000 -0.8876 -21.0104 0.0000 0.0000 -17.9552 -0.0000 -0.0000 -24.1377 -0.0509 0.5632 -17.4915 0.0000 0.0000 -16.5872 0.0000 -0.0000 14.2270 5.0051 14.5710 61.3286 30.2115 2.5665 -0.0000 0.0000 6.6898 9.6737 0.3478 -15.3829 1.2631 4.7871 -8.5699 -12.8110 8.9349 -16.2732 0.8060 -9.7645 4.0763 4.0835 0.4323 4.0654 17.4671 0.0000 -0.0000 8.0855 0.0000 0.0000 12.5291 0.0000 1.3249 17.4919 0.0000 -0.0000 18.5040 0.0000 0.0000 18.0408 0.0000 0.8890 21.0119 0.0000 0.0000 17.9526 -0.0000 -0.0000 24.1370 -0.0465 -0.5637 17.4903 -0.0000 0.0000 16.5840 0.0000 -0.0000 -11.2453 14.6539 10.3511 13.9635 2.0215 4.2032 0.0608 0.6176 -7.4823 -4.9331 0.0000 0.0000 2.7221 -10.2832 3.6579 4.1426 -9.7215 -3.2748 -2.6282 -1.5820 2.8226 -7.2735 0.0000 0.0000 
-0.1770 95.6355 0.1330 -4.9574 -3.6325 -2.3805 3.2827 1.5331 1.9413 1.1393 0.3233 1.4319 1.1178 0.3491 1.4301 5.4438 -0.0280 0.4339 -0.0000 0.0000 -0.0000 -7.6967 1.5075 -0.0855 -11.8006 4.6927 -16.8413 -69.3635 19.2280 -3.0062 -0.0000 0.0000 -1.9905 -8.5900 -3.8391 -24.9107 -1.1140 4.8175 8.3033 13.7825 8.0955 12.9059 -3.9207 -7.4624 1.0680 -13.2915 0.0000 -1.3174 -19.2312 -0.0000 0.0000 -18.6936 -0.0000 -0.0000 -3.3225 0.5070 -4.0579 -18.4704 0.0000 -0.0000 -10.1249 0.0000 0.0000 -20.0134 -0.0000 -0.9709 -22.0185 0.0000 -0.0000 -18.0914 0.0000 0.0000 -25.8676 -0.2906 0.5263 -19.3491 0.0000 -0.0000 -18.5783 -0.0000 0.0000 14.1574 4.9880 14.5305 61.0590 29.2840 2.4069 -0.0000 -0.0000 6.6197 9.6033 0.2472 -13.7215 1.2631 4.7871 -8.5699 -12.8110 8.9349 -16.2734 0.8060 -9.7645 4.0762 5.4410 0.5113 4.0468 19.6755 0.0000 0.0000 10.3154 0.0000 0.0000 13.7147 0.0000 1.3228 19.6078 0.0000 -0.0000 20.9682 0.0000 -0.0000 19.0841 0.0000 0.8760 23.2203 -0.0000 -0.0000 20.4236 0.0000 0.0000 25.2087 -0.0269 -0.5667 19.6172 -0.0000 -0.0000 18.8421 -0.0000 -0.0000 -11.2953 14.7374 9.8179 14.2126 1.8801 4.1957 -0.1124 0.4786 -7.5546 -4.9191 0.0000 0.0000 -0.3994 -10.2936 2.6046 10.3287 -9.9337 -3.2872 -5.7519 -2.0830 3.3024 -7.4298 0.0000 -0.0000 
-0.3716 95.4883 0.2836 -4.6518 -3.5675 -1.7128 3.2755 1.5275 1.5533 1.1315 0.3148 1.3042 1.1108 0.3390 1.3027 5.4019 0.0403 0.3910 -0.0000 0.0000 -0.0000 -7.9647 1.7157 -0.1118 -11.8012 4.6922 -16.8237 -68.8399 18.2292 -2.7052 0.0000 -0.0000 -2.5889 -8.7591 -3.6921 -22.7594 -0.9795 4.8488 8.0496 13.2228 7.5938 11.7005 -3.4488 -7.5250 0.8393 -13.8664 0.0000 -1.3042 -20.7525 0.0000 0.0000 -18.7873 -0.0000 0.0000 -2.2705 0.5634 -4.0767 -19.2902 -0.0000 -0.0000 -11.9955 0.0000 0.0000 -21.8948 0.0000 -1.0504 -22.8379 -0.0000 -0.0000 -18.1329 0.0000 0.0000 -27.4675 -0.5227 0.5005 -21.2651 0.0000 -0.0000 -20.6306 0.0000 0.0000 14.1293 4.9818 14.5189 60.7359 28.3783 2.1940 -0.0000 0.0000 6.6329 9.3924 0.1960 -11.9635 1.2631 4.7871 -8.5700 -12.8113 8.9353 -16.2745 0.8062 -9.7646 4.0762 7.0584 0.5898 4.0279 22.0408 0.0000 -0.0000 12.5702 -0.0000 0.0000 14.9472 0.0000 1.3222 21.7681 0.0000 0.0000 23.7417 0.0000 -0.0000 20.0015 -0.0000 0.8498 25.5856 0.0000 -0.0000 23.2123 0.0000 0.0000 26.1888 -0.0068 -0.5760 21.8019 -0.0000 -0.0000 21.1588 -0.0000 0.0000 -11.3431 14.8645 9.2797 14.5511 1.7520 4.1855 -0.3286 0.2631 -7.6426 -4.9694 -0.0000 0.0000 -2.2493 -10.2629 1.7448 14.0572 -9.9384 -3.3049 -7.6686 -2.7675 3.6188 -7.5105 0.0000 0.0000 
-0.5804 95.3240 0.4502 -4.3472 -3.5383 -0.9827 3.2823 1.5122 1.1325 1.1184 0.3043 1.1706 1.0986 0.3270 1.1694 5.5127 0.1267 0.3374 -0.0000 0.0000 -0.0000 -8.3507 2.0051 -0.1598 -11.8100 4.6925 -16.8168 -68.3040 16.9845 -2.5887 -0.0000 0.0000 -2.8222 -8.8286 -3.7747 -20.3344 -0.8532 4.8771 7.8121 12.6921 7.1061 10.3325 -2.9809 -7.5891 0.4747 -14.2631 -0.0000 -1.2908 -22.0641 0.0000 0.0000 -18.7881 0.0000 -0.0000 -0.9334 0.6027 -4.1149 -19.9293 -0.0000 0.0000 -13.6997 0.0000 0.0000 -23.6779 -0.0000 -1.1261 -23.4767 0.0000 -0.0000 -18.0836 -0.0000 -0.0000 -28.9429 -0.7474 0.4854 -23.2370 -0.0000 0.0000 -22.7417 0.0000 0.0000 14.1327 4.9893 14.5670 60.3614 27.4955 1.9196 -0.0000 0.0000 6.7332 9.0534 0.0878 -10.0058 1.2631 4.7871 -8.5700 -12.8112 8.9351 -16.2735 0.8061 -9.7645 4.0765 8.8920 0.6677 4.0088 24.5365 0.0000 0.0000 14.8443 0.0000 -0.0000 16.2178 -0.0000 1.3227 23.9642 0.0000 0.0000 26.7743 0.0000 0.0000 20.8122 0.0000 0.8126 28.0813 -0.0000 -0.0000 26.2671 0.0000 -0.0000 27.0909 -0.0000 -0.5908 24.0352 -0.0000 0.0000 23.5251 0.0000 -0.0000 -11.3738 14.9664 8.6985 14.9845 1.6373 4.1727 -0.5704 0.0456 -7.7506 -5.0061 -0.0000 0.0000 -3.7249 -10.1798 0.8966 17.1259 -9.9844 -3.3158 -9.3414 -3.3643 3.8240 -7.5440 0.0000 0.0000 
-0.7989 95.1467 0.6251 -4.0678 -3.5368 -0.1761 3.3180 1.4990 0.6572 1.0987 0.2945 1.0299 1.0800 0.3155 1.0289 5.7438 0.2214 0.2919 -0.0000 0.0000 -0.0000 -8.8373 2.3476 -0.2312 -11.8529 4.6974 -16.8300 -67.7255 15.6748 -2.7387 -0.0000 0.0000 -2.5001 -8.6157 -4.2091 -17.8709 -0.7331 4.9031 7.5870 12.1789 6.6388 8.8387 -2.5168 -7.6585 0.0060 -14.5238 -0.0000 -1.2773 -23.2156 0.0000 -0.0000 -18.7180 0.0000 -0.0000 0.6215 0.6288 -4.1679 -20.4305 -0.0000 -0.0000 -15.2768 0.0000 0.0000 -25.3860 -0.0000 -1.1990 -23.9775 0.0000 -0.0000 -17.9651 0.0000 0.0000 -30.3233 -0.9665 0.4783 -25.2516 -0.0000 -0.0000 -24.8977 0.0000 0.0000 14.0997 4.9933 14.6366 59.9852 26.6493 1.7205 0.0000 0.0000 6.7611 8.7210 -0.1614 -7.8397 1.2628 4.7872 -8.5694 -12.8103 8.9336 -16.2693 0.8055 -9.7644 4.0767 10.8444 0.7453 3.9896 27.1035 0.0000 -0.0000 17.1286 0.0000 0.0000 17.5090 -0.0000 1.3238 26.1793 0.0000 -0.0000 29.9495 0.0000 -0.0000 21.5639 -0.0000 0.7692 30.6484 0.0000 -0.0000 29.4684 0.0000 -0.0000 27.9495 -0.0000 -0.6086 26.2954 -0.0000 -0.0000 25.9187 0.0000 -0.0000 -11.3021 15.0207 8.0253 15.3631 1.4913 4.1633 -0.8143 -0.0891 -7.8661 -4.9090 0.0000 -0.0000 -5.0003 -9.9458 0.0111 19.8589 -10.0029 -3.3103 -10.8999 -3.8895 3.9837 -7.6318 -0.0000 0.0000 
-1.0362 94.9645 0.8042 -3.8328 -3.5556 0.6695 3.3939 1.5159 0.1423 1.0771 0.2896 0.8800 1.0596 0.3086 0.8791 6.0480 0.3134 0.2644 -0.0000 0.0000 -0.0000 -9.4040 2.6795 -0.2947 -11.8997 4.7023 -16.8117 -67.0839 14.7618 -2.7382 -0.0000 -0.0000 -2.4751 -8.3926 -4.5370 -15.7302 -0.6165 4.9275 7.3689 11.6691 6.1981 7.2712 -2.0558 -7.7358 -0.5217 -14.7079 -0.0000 -1.2638 -24.2768 0.0000 -0.0000 -18.6079 0.0000 -0.0000 2.2992 0.6474 -4.2293 -20.8539 -0.0000 0.0000 -16.7823 -0.0000 0.0000 -27.0518 -0.0000 -1.2702 -24.4006 0.0000 0.0000 -17.8075 -0.0000 -0.0000 -31.6500 -1.1824 0.4759 -27.2903 -0.0000 -0.0000 -27.0789 -0.0000 0.0000 13.9814 4.9703 14.6261 59.6980 25.7562 1.7556 -0.0000 0.0000 6.5258 8.3972 -0.4323 -5.7579 1.2627 4.7872 -8.5691 -12.8098 8.9333 -16.2692 0.8053 -9.7644 4.0761 12.8002 0.8230 3.9703 29.6732 -0.0000 0.0000 19.4156 -0.0000 -0.0000 18.8025 0.0000 1.3250 28.3974 0.0000 0.0000 33.1261 0.0000 -0.0000 22.3172 0.0000 0.7259 33.2180 -0.0000 0.0000 32.6710 -0.0000 -0.0000 28.8101 -0.0000 -0.6262 28.5553 0.0000 -0.0000 28.3121 0.0000 -0.0000 -11.0820 15.1495 7.3011 15.5435 1.2842 4.1635 -1.0795 -0.1663 -7.9738 -4.7582 0.0000 0.0000 -6.1752 -9.5153 -0.8580 22.4368 -10.0052 -3.3053 -12.2812 -4.4161 4.1434 -7.8057 0.0000 -0.0000 
-1.3209 94.7766 1.0045 -3.6678 -3.5954 1.4684 3.4668 1.5906 -0.3593 1.0588 0.2931 0.7235 1.0427 0.3099 0.7230 6.4644 0.4077 0.2091 -0.0000 0.0000 -0.0000 -10.0058 2.9634 -0.2414 -11.8410 4.6902 -16.6784 -66.5071 14.2673 -1.9284 0.0000 0.0000 -4.0750 -8.8156 -4.0406 -13.7985 -0.5009 4.9508 7.1535 11.1520 5.7888 5.6733 -1.5972 -7.8225 -1.0708 -14.8644 0.0000 -1.2502 -25.3055 0.0000 -0.0000 -18.4835 0.0000 -0.0000 4.0208 0.6635 -4.2937 -21.2494 0.0000 0.0000 -18.2620 -0.0000 -0.0000 -28.7022 -0.0000 -1.3409 -24.7957 -0.0000 -0.0000 -17.6359 0.0000 -0.0000 -32.9573 -1.3972 0.4750 -29.3375 0.0000 -0.0000 -29.2691 0.0000 0.0000 13.8792 4.9398 14.5521 59.5592 24.5996 1.7656 0.0000 -0.0000 6.2772 7.6921 -0.4384 -4.1965 1.2636 4.7870 -8.5708 -12.8122 8.9377 -16.2820 0.8069 -9.7648 4.0749 14.6596 0.9016 3.9506 32.1855 0.0000 -0.0000 21.6982 -0.0000 0.0000 20.0826 -0.0000 1.3256 30.6044 0.0000 0.0000 36.1816 -0.0000 -0.0000 23.1246 -0.0000 0.6880 35.7304 0.0000 0.0000 35.7491 -0.0000 -0.0000 29.7116 0.0000 -0.6410 30.7914 -0.0000 0.0000 30.6815 0.0000 -0.0000 -10.9259 15.4853 6.7234 15.8384 1.0788 4.1639 -1.3956 -0.3285 -8.1108 -4.9199 0.0000 0.0000 -7.1771 -9.0933 -1.5575 24.7499 -9.8233 -3.3376 -13.4713 -5.3734 4.1645 -7.8375 -0.0000 -0.0000 
